<?xml version="1.0" encoding="UTF-8"?>
<svg id="Capa_2" data-name="Capa 2" xmlns="http://www.w3.org/2000/svg" viewBox="0 0 318.04 84.77">
  <defs>
    <style>
      .cls-1 {
        fill: #F5E9DA;
      }
      .cls-icon {
        fill: #F57C00;
      }
    </style>
  </defs>
  <g id="Capa_de_Información_de_muestra" data-name="Capa de Información de muestra">
    <g>
      <g>
        <path class="cls-1" d="M110.06,41.33h9.48v4.78c0,2.06-.4,3.85-1.19,5.39-.8,1.54-1.91,2.73-3.34,3.57-1.43.85-3.11,1.27-5.04,1.27s-3.64-.4-5.1-1.19c-1.45-.8-2.58-1.92-3.39-3.37-.8-1.45-1.2-3.14-1.2-5.07v-8.07c0-2.06.4-3.85,1.19-5.38.8-1.53,1.91-2.72,3.34-3.57,1.43-.85,3.11-1.27,5.04-1.27,1.59,0,3.04.34,4.36,1.02,1.31.68,2.41,1.62,3.3,2.84.89,1.22,1.49,2.64,1.81,4.27h-4.16c-.35-1.42-1.03-2.5-2.05-3.25-1.02-.75-2.1-1.13-3.25-1.13-1.71,0-3.07.59-4.1,1.78-1.03,1.19-1.54,2.75-1.54,4.69v8.07c0,1.78.53,3.21,1.58,4.28,1.05,1.07,2.45,1.61,4.18,1.61s3.07-.56,4.1-1.69c1.03-1.13,1.54-2.7,1.54-4.72v-1.19h-5.55v-3.67Z"/>
        <path class="cls-1" d="M131.62,56.35c-2.4,0-4.19-.5-5.39-1.49-1.2-.99-1.8-2.51-1.8-4.55s.55-3.4,1.65-4.36c1.1-.96,2.74-1.44,4.94-1.44h5.55l.26,3.09h-5.79c-.99,0-1.74.22-2.24.67-.5.45-.75,1.13-.75,2.04,0,.99.33,1.72,1,2.2.66.48,1.66.71,2.99.71,1.45,0,2.55-.16,3.27-.47.73-.31,1.09-.8,1.09-1.47l.4,2.75c-.34.53-.76.96-1.26,1.3-.5.34-1.08.59-1.72.76-.65.17-1.38.25-2.19.25ZM136.4,56.06v-12.38c0-1.28-.34-2.27-1.03-2.98-.68-.71-1.65-1.06-2.91-1.06-.77,0-1.52.12-2.27.35-.75.23-1.41.57-2,1.01l-2.8-1.92c.74-.89,1.71-1.58,2.93-2.08,1.21-.5,2.56-.74,4.04-.74,2.45,0,4.34.63,5.68,1.9,1.34,1.27,2.01,3.05,2.01,5.36v12.55h-3.65Z"/>
        <path class="cls-1" d="M152.79,56.35c-1.73,0-3.3-.25-4.71-.76-1.41-.51-2.67-1.27-3.79-2.29l2.28-2.8c1.07.8,2.12,1.4,3.15,1.81,1.03.4,2.06.6,3.08.6,1.52,0,2.66-.24,3.41-.71.76-.47,1.14-1.18,1.14-2.12,0-.73-.25-1.24-.76-1.54-.51-.3-1.17-.5-1.99-.59-.82-.09-1.7-.17-2.64-.24-.79-.06-1.57-.16-2.35-.29-.78-.13-1.49-.37-2.13-.71-.64-.34-1.15-.86-1.53-1.53-.38-.68-.57-1.59-.57-2.73,0-2.07.63-3.62,1.9-4.65,1.27-1.03,3.15-1.54,5.66-1.54,1.53,0,2.95.21,4.27.62,1.32.41,2.55,1.05,3.71,1.9l-2.31,2.8c-.98-.63-1.94-1.1-2.89-1.41-.95-.31-1.87-.47-2.77-.47-1.3,0-2.28.22-2.93.67-.65.45-.98,1.11-.98,2,0,.59.23,1.01.68,1.27.45.26,1.05.42,1.79.5.74.08,1.54.14,2.39.21.82.05,1.64.14,2.47.27s1.6.39,2.3.76c.7.38,1.27.93,1.69,1.67.43.74.64,1.75.64,3.03,0,2.09-.68,3.66-2.04,4.7-1.36,1.04-3.41,1.56-6.14,1.56Z"/>
        <path class="cls-1" d="M164.36,40v-3.46h8.8v3.46h-8.8ZM170.94,56.16c-1.61,0-2.77-.44-3.49-1.34-.72-.89-1.08-2.17-1.08-3.84v-20.13h3.84v20.17c0,.46.09.83.28,1.09.19.26.46.4.83.4h1.84v3.65h-2.22Z"/>
        <path class="cls-1" d="M178.43,56.06v-19.53h3.84v19.53h-3.84ZM189.17,41.16c-.34-.41-.77-.73-1.28-.94-.51-.21-1.11-.32-1.79-.32-1.22,0-2.16.34-2.83,1.01s-1.01,1.6-1.01,2.79l-.4-3.76c.59-1.15,1.36-2.06,2.32-2.71.96-.65,2.02-.98,3.17-.98.89,0,1.7.13,2.42.39.72.26,1.35.64,1.89,1.14l-2.5,3.39Z"/>
        <path class="cls-1" d="M201.98,56.35c-2.56,0-4.54-.74-5.94-2.23-1.4-1.49-2.11-3.58-2.11-6.27v-3.18c0-2.67.7-4.74,2.11-6.21,1.4-1.47,3.39-2.2,5.94-2.2s4.54.73,5.94,2.2c1.4,1.47,2.11,3.54,2.11,6.21v3.24c0,2.68-.7,4.76-2.11,6.24-1.4,1.47-3.39,2.21-5.94,2.21ZM201.98,52.7c1.34,0,2.38-.42,3.11-1.26.73-.84,1.1-2.02,1.1-3.54v-3.24c0-1.52-.37-2.69-1.1-3.52-.73-.83-1.77-1.24-3.11-1.24s-2.36.41-3.1,1.24c-.74.83-1.11,2-1.11,3.52v3.24c0,1.52.37,2.7,1.11,3.54.74.84,1.77,1.26,3.1,1.26Z"/>
        <path class="cls-1" d="M215.49,44.44h12.64v3.65h-12.64v-3.65Z"/>
        <path class="cls-1" d="M243.3,56.35c-1.91,0-3.57-.42-5-1.27-1.43-.85-2.54-2.03-3.33-3.57-.79-1.53-1.19-3.32-1.19-5.36v-7.51c0-2.06.4-3.85,1.19-5.38.79-1.53,1.9-2.72,3.33-3.57,1.43-.85,3.1-1.27,5-1.27,1.58,0,3.03.34,4.34,1.02,1.31.68,2.41,1.62,3.29,2.84.88,1.22,1.48,2.64,1.8,4.27h-3.93c-.24-.88-.64-1.65-1.19-2.3-.56-.66-1.21-1.17-1.97-1.53-.75-.36-1.53-.55-2.33-.55-1.68,0-3.03.59-4.05,1.78-1.02,1.19-1.53,2.75-1.53,4.69v7.51c0,1.94.51,3.51,1.53,4.68,1.02,1.18,2.37,1.77,4.05,1.77,1.19,0,2.31-.38,3.37-1.13,1.05-.75,1.76-1.84,2.13-3.25h3.93c-.31,1.63-.92,3.05-1.81,4.27-.89,1.22-1.99,2.16-3.29,2.84-1.3.68-2.75,1.02-4.33,1.02Z"/>
        <path class="cls-1" d="M265.29,56.35c-2.56,0-4.54-.74-5.94-2.23-1.4-1.49-2.11-3.58-2.11-6.27v-3.18c0-2.67.7-4.74,2.11-6.21,1.4-1.47,3.39-2.2,5.94-2.2s4.54.73,5.95,2.2c1.4,1.47,2.11,3.54,2.11,6.21v3.24c0,2.68-.7,4.76-2.11,6.24-1.4,1.47-3.39,2.21-5.95,2.21ZM265.29,52.7c1.34,0,2.38-.42,3.11-1.26.73-.84,1.1-2.02,1.1-3.54v-3.24c0-1.52-.37-2.69-1.1-3.52-.73-.83-1.77-1.24-3.11-1.24s-2.36.41-3.1,1.24c-.74.83-1.11,2-1.11,3.52v3.24c0,1.52.37,2.7,1.11,3.54.74.84,1.77,1.26,3.1,1.26Z"/>
        <path class="cls-1" d="M277.29,39.81v-3.27h9.76v3.27h-9.76ZM279.36,56.06v-22.18c0-1.72.4-3.01,1.19-3.88.79-.87,2.02-1.3,3.69-1.3h2.82v3.65h-2.75c-.39,0-.67.15-.85.44-.18.29-.26.64-.26,1.04v22.22h-3.84Z"/>
        <path class="cls-1" d="M289.5,39.81v-3.27h9.76v3.27h-9.76ZM291.57,56.06v-22.18c0-1.72.4-3.01,1.19-3.88.79-.87,2.02-1.3,3.69-1.3h2.82v3.65h-2.75c-.39,0-.67.15-.85.44-.18.29-.26.64-.26,1.04v22.22h-3.84Z"/>
        <path class="cls-1" d="M310.65,56.35c-2.72,0-4.83-.76-6.32-2.28-1.49-1.52-2.24-3.67-2.24-6.47v-2.2c0-2.91.72-5.16,2.15-6.75,1.44-1.59,3.46-2.39,6.07-2.39,2.46,0,4.36.9,5.71,2.71,1.35,1.81,2.02,4.34,2.02,7.6v1.28h-13.17v-3.09h9.52c-.11-1.58-.52-2.82-1.23-3.71-.71-.89-1.66-1.34-2.85-1.34-1.44,0-2.56.48-3.37,1.43-.8.95-1.2,2.3-1.2,4.04v2.48c0,1.62.43,2.86,1.29,3.72.86.87,2.07,1.3,3.62,1.3.78,0,1.55-.16,2.31-.47.76-.31,1.45-.75,2.05-1.32l2.52,2.52c-.97.93-2.05,1.65-3.25,2.15-1.2.51-2.41.76-3.63.76Z"/>
      </g>
      <g>
        <path class="cls-icon" d="M45.24,51.34c-1.31.73-2.85,1.27-4.6,1.62-1.6.32-3.22.33-4.81.01-4.22-.84-7.2-2.79-8.86-5.8-3.15-5.7-1.02-13.81-.17-16.52.02-.08.05-.15.07-.22,1.03-.38,2.79-.93,5.19-1.34,1.67-.28,3.65-.49,5.89-.5.08,0,.17,0,.25,0,1.48,0,2.84.08,4.08.22,2.91-.54,5.25-1.52,6.85-2.2-2.42-.73-6.14-1.52-10.93-1.52-.09,0-.17,0-.27,0-5,.04-8.8.92-11.14,1.67-.87.28-1.54.54-1.99.73-.44.18-.78.54-.95.98-.06.15-.51,1.34-.97,3.15-1.05,4.11-2.17,11.44,1.02,17.23,2.18,3.96,5.97,6.51,11.25,7.56,2.04.41,4.12.4,6.18-.01,2.1-.42,3.99-1.1,5.61-2,.85-.47,1.15-1.54.68-2.38-.47-.84-1.54-1.15-2.38-.68Z"/>
        <path class="cls-icon" d="M77.03,25.89c-2.13-5.05-5.19-9.58-9.08-13.47-3.89-3.89-8.42-6.95-13.47-9.08-5.23-2.21-10.78-3.33-16.5-3.33-5.13,0-10.1,1-14.78,2.98-4.52,1.91-8.58,4.65-12.07,8.14-3.49,3.49-6.23,7.55-8.14,12.07-1.98,4.68-2.98,9.66-2.98,14.78,0,3.37.44,6.71,1.31,9.93.74,2.73,1.78,5.38,3.11,7.87,1.31,2.46,2.89,4.78,4.71,6.89,1.81,2.11,3.85,4.02,6.07,5.69,2.24,1.68,4.66,3.11,7.21,4.26,2.6,1.17,5.33,2.04,8.12,2.6,2.43.48,4.94.73,7.44.73,4.53,0,8.92-.89,13.06-2.64,4-1.69,7.59-4.11,10.67-7.19,3.08-3.08,5.5-6.67,7.19-10.67,1.75-4.14,2.64-8.53,2.64-13.06s-.89-8.92-2.64-13.06c-1.69-4-4.11-7.59-7.19-10.67s-6.67-5.5-10.67-7.19c-4.14-1.75-8.53-2.64-13.06-2.64-3.93,0-7.75.77-11.35,2.29-3.47,1.47-6.59,3.57-9.26,6.25-2.68,2.68-4.78,5.79-6.25,9.26-1.52,3.59-2.29,7.41-2.29,11.35,0,7.26,2.69,14.22,7.57,19.59,4.85,5.33,11.45,8.67,18.59,9.4,2.73.28,5.47-.05,7.9-.96,4.26-1.59,7.42-4.64,9.38-9.06,1.51-3.4,2.29-7.61,2.34-12.52,0-.46,0-.91,0-1.36.91,0,1.79-.2,2.98-.98,1.65-1.09,2.87-3.16,3.1-5.29.19-1.74-.3-3.3-1.37-4.38-1.37-1.4-3.57-1.88-5.81-1.34-.1.02-.2.05-.3.08-.31-1.49-.57-2.41-.59-2.52-.14-.52-.51-.94-1.01-1.15-.26-.11-.59-.24-.98-.38-.11.02-.21.05-.32.1-.22.09-.47.2-.74.31-1.17.5-2.72,1.16-4.61,1.7-1.97.57-4.31,1-6.95.98-1.25,0-2.44-.17-3.55-.41-2.95.3-5.19.9-6.61,1.37,2.54,1.18,5.96,2.51,10.14,2.54.06,0,.13,0,.19,0,4.88,0,8.87-1.37,11.47-2.42.57,2.57,1.52,7.73,1.46,13.18-.11,9.83-3.29,15.98-9.44,18.27-1.94.72-4.13.99-6.33.76-13.12-1.34-23.01-12.31-23.01-25.51,0-14.14,11.5-25.64,25.64-25.64,16.57,0,30.06,13.48,30.06,30.06s-13.48,30.06-30.06,30.06c-2.27,0-4.55-.22-6.76-.66-2.53-.5-5.01-1.3-7.37-2.36-2.31-1.04-4.51-2.34-6.54-3.86-2.02-1.51-3.87-3.25-5.51-5.17-1.65-1.92-3.09-4.03-4.27-6.26-1.21-2.27-2.16-4.67-2.82-7.14-.79-2.92-1.19-5.96-1.19-9.02C3.5,18.97,18.97,3.5,37.97,3.5c21.44,0,38.89,17.44,38.89,38.89s-17.13,38.51-38.18,38.88c-.21,0-3.11,0-3.5,0-.97,0-1.75.78-1.75,1.75s.78,1.75,1.75,1.75c.03,0,3.28,0,3.56,0,5.64-.1,11.1-1.29,16.23-3.54,4.96-2.17,9.41-5.24,13.23-9.12,3.82-3.88,6.81-8.39,8.9-13.39,2.16-5.18,3.26-10.67,3.26-16.33s-1.12-11.27-3.33-16.5ZM56.81,34.87c.43.44.43,1.17.39,1.56-.12,1.09-.75,2.21-1.54,2.73-.63.41-.84.41-1.17.41h-.06c-.14-1.79-.36-3.47-.58-4.94,1.17-.43,2.42-.33,2.97.24Z"/>
      </g>
    </g>
  </g>
</svg>
